<svg width="24" height="25" viewBox="0 0 24 25" fill="none" xmlns="http://www.w3.org/2000/svg">
<mask id="mask0_185_276" style="mask-type:alpha" maskUnits="userSpaceOnUse" x="0" y="0" width="24" height="25">
<rect y="0.50354" width="24" height="24" fill="#D9D9D9"/>
</mask>
<g mask="url(#mask0_185_276)">
<path d="M14 9.50354C13.7167 9.50354 13.4792 9.40771 13.2875 9.21604C13.0958 9.02437 13 8.78687 13 8.50354V4.50354C13 4.22021 13.0958 3.98271 13.2875 3.79104C13.4792 3.59937 13.7167 3.50354 14 3.50354H20C20.2833 3.50354 20.5208 3.59937 20.7125 3.79104C20.9042 3.98271 21 4.22021 21 4.50354V8.50354C21 8.78687 20.9042 9.02437 20.7125 9.21604C20.5208 9.40771 20.2833 9.50354 20 9.50354H14ZM4 13.5035C3.71667 13.5035 3.47917 13.4077 3.2875 13.216C3.09583 13.0244 3 12.7869 3 12.5035V4.50354C3 4.22021 3.09583 3.98271 3.2875 3.79104C3.47917 3.59937 3.71667 3.50354 4 3.50354H10C10.2833 3.50354 10.5208 3.59937 10.7125 3.79104C10.9042 3.98271 11 4.22021 11 4.50354V12.5035C11 12.7869 10.9042 13.0244 10.7125 13.216C10.5208 13.4077 10.2833 13.5035 10 13.5035H4ZM14 21.5035C13.7167 21.5035 13.4792 21.4077 13.2875 21.216C13.0958 21.0244 13 20.7869 13 20.5035V12.5035C13 12.2202 13.0958 11.9827 13.2875 11.791C13.4792 11.5994 13.7167 11.5035 14 11.5035H20C20.2833 11.5035 20.5208 11.5994 20.7125 11.791C20.9042 11.9827 21 12.2202 21 12.5035V20.5035C21 20.7869 20.9042 21.0244 20.7125 21.216C20.5208 21.4077 20.2833 21.5035 20 21.5035H14ZM4 21.5035C3.71667 21.5035 3.47917 21.4077 3.2875 21.216C3.09583 21.0244 3 20.7869 3 20.5035V16.5035C3 16.2202 3.09583 15.9827 3.2875 15.791C3.47917 15.5994 3.71667 15.5035 4 15.5035H10C10.2833 15.5035 10.5208 15.5994 10.7125 15.791C10.9042 15.9827 11 16.2202 11 16.5035V20.5035C11 20.7869 10.9042 21.0244 10.7125 21.216C10.5208 21.4077 10.2833 21.5035 10 21.5035H4Z" fill="#F0F0F0"/>
</g>
</svg>
