<svg width="24" height="25" viewBox="0 0 24 25" fill="none" xmlns="http://www.w3.org/2000/svg">
<path d="M22.0001 6.73645V17.3593C22.0001 18.4722 21.2858 19.5851 20.1634 19.9897L15.0613 21.912C14.7552 22.0131 14.4491 22.1143 14.0409 22.1143C13.5307 22.1143 12.9185 21.912 12.4083 21.6085C12.2042 21.4061 11.8981 21.2038 11.796 21.0014H7.91843C6.38782 21.0014 5.06128 19.7874 5.06128 18.1687V17.157C5.06128 16.7523 5.36741 16.3476 5.87761 16.3476C6.38782 16.3476 6.69394 16.6511 6.69394 17.157V18.1687C6.69394 18.8769 7.30618 19.3827 7.91843 19.3827H11.2858V4.81423H7.91843C7.20414 4.81423 6.69394 5.32008 6.69394 6.02827V7.03996C6.69394 7.44464 6.38782 7.84932 5.87761 7.84932C5.36741 7.84932 5.06128 7.44464 5.06128 7.03996V6.02827C5.06128 4.51072 6.28578 3.19551 7.91843 3.19551H11.796C12.0001 2.99317 12.2042 2.79083 12.4083 2.58849C13.2246 2.08264 14.143 1.98147 15.0613 2.28498L20.1634 4.20721C21.1838 4.51072 22.0001 5.62359 22.0001 6.73645Z" fill="white"/>
<path d="M4.85714 14.9312C4.65306 14.9312 4.44898 14.8301 4.34694 14.7289L2.30612 12.7055C2.20408 12.6043 2.20408 12.5032 2.10204 12.5032C2.10204 12.402 2 12.3008 2 12.1997C2 12.0985 2 11.9973 2.10204 11.8962C2.10204 11.795 2.20408 11.6938 2.30612 11.6938L4.34694 9.67038C4.65306 9.36687 5.16327 9.36687 5.46939 9.67038C5.77551 9.97389 5.77551 10.4798 5.46939 10.7833L4.7551 11.4915H8.93878C9.34694 11.4915 9.7551 11.795 9.7551 12.3008C9.7551 12.8067 9.34694 12.9079 8.93878 12.9079H4.65306L5.36735 13.616C5.67347 13.9195 5.67347 14.4254 5.36735 14.7289C5.26531 14.8301 5.06122 14.9312 4.85714 14.9312Z" fill="white"/>
</svg>
