<svg width="18" height="22" viewBox="0 0 18 22" fill="none" xmlns="http://www.w3.org/2000/svg">
<path d="M0.7 10V4.45491L9 0.766022L17.3 4.45491V10C17.3 15.1959 13.7367 20.0306 9 21.2778C4.26331 20.0306 0.7 15.1959 0.7 10Z" fill="#F5F5F5" stroke="url(#paint0_linear_17_49)" stroke-width="1.4"/>
<g clip-path="url(#clip0_17_49)">
<path d="M8.97396 21C8.87304 21 8.77262 20.9953 8.6727 20.9858C8.65152 20.9114 8.64404 20.8282 8.65121 20.7467C8.65592 20.6731 8.65218 20.5987 8.64022 20.5275H7.52609C7.4246 20.7144 7.28452 20.8305 7.13389 20.8525C7.08613 20.8514 7.03902 20.8339 6.99545 20.8012C6.95189 20.7686 6.9128 20.7213 6.88059 20.6625C6.81621 20.5363 6.77821 20.3786 6.77235 20.2132C6.76649 20.0478 6.79309 19.8838 6.84812 19.7458C6.88126 19.6759 6.92358 19.6195 6.97182 19.5811C7.02006 19.5427 7.07294 19.5232 7.1264 19.5242C7.2546 19.5348 7.37752 19.6127 7.47763 19.7467H8.64072C8.65651 19.5771 8.65651 19.4045 8.64072 19.235H8.04319C7.94759 19.2379 7.85309 19.2007 7.7684 19.1267C7.52603 18.8864 7.27821 18.6618 7.02548 18.4533C6.918 18.3476 6.79553 18.2918 6.67076 18.2917C6.59159 18.3003 6.51227 18.3045 6.43294 18.3042C6.35434 18.3036 6.27706 18.3017 6.20112 18.2983C6.1262 18.2946 6.05125 18.2924 5.9763 18.2917C5.86567 18.4685 5.72224 18.5773 5.56961 18.6C5.52087 18.5992 5.47279 18.581 5.42866 18.5465C5.38452 18.5119 5.34535 18.462 5.31381 18.4C5.24379 18.2815 5.20453 18.1218 5.20453 17.9554C5.20453 17.789 5.24379 17.6293 5.31381 17.5108C5.34608 17.443 5.38676 17.3876 5.43307 17.3485C5.47939 17.3094 5.53023 17.2874 5.5821 17.2842C5.72299 17.3066 5.85561 17.4053 5.95981 17.565H6.79966C6.89521 17.5618 6.9897 17.5988 7.07444 17.6725C7.14439 17.7408 7.22083 17.8075 7.29477 17.8717C7.42551 17.9785 7.55141 18.101 7.67148 18.2383C7.83622 18.4225 8.03074 18.5185 8.22904 18.5133C8.25871 18.5129 8.28837 18.5109 8.31797 18.5075C8.35429 18.5003 8.39082 18.4964 8.42739 18.4958C8.46103 18.4958 8.49567 18.4978 8.53131 18.5017C8.57061 18.5056 8.61241 18.5075 8.65671 18.5075V17.6458H8.07516C7.9753 17.7884 7.85135 17.8758 7.72044 17.8958C7.66032 17.8892 7.60176 17.8611 7.54874 17.8133C7.49572 17.7656 7.44948 17.6994 7.41318 17.6192C7.22832 17.2825 7.34623 16.95 7.47813 16.73C7.52801 16.6625 7.59028 16.6258 7.65449 16.6258C7.81728 16.6608 7.96684 16.7935 8.07516 16.9992H8.62473V16.245C8.59703 16.2226 8.56659 16.2112 8.5358 16.2117C8.52248 16.2117 8.50866 16.2128 8.49434 16.215C8.47968 16.2167 8.46386 16.2178 8.44687 16.2183H5.39475C5.32281 16.2262 5.25086 16.2031 5.18584 16.1511C5.12082 16.0992 5.06492 16.0201 5.02354 15.9217C4.9376 15.7317 4.83868 15.5392 4.75125 15.3692L4.71628 15.3025C4.34507 15.2483 4.23165 15.065 4.24814 14.5483C4.25252 14.4646 4.26698 14.3833 4.29064 14.3091C4.31431 14.2349 4.3467 14.1695 4.38587 14.1166C4.42505 14.0638 4.47021 14.0247 4.51865 14.0017C4.56709 13.9786 4.61783 13.9721 4.66781 13.9825C4.91362 13.9825 5.02304 14.2575 5.02304 14.8717C5.05301 14.93 5.08349 14.9911 5.11447 15.055C5.18241 15.1917 5.25236 15.3342 5.3303 15.4642H8.65671C8.67293 15.1776 8.67293 14.8891 8.65671 14.6025H6.23459C6.12713 14.7778 5.987 14.8866 5.8374 14.9108C5.78973 14.9095 5.7428 14.8909 5.69984 14.8564C5.65689 14.8218 5.61893 14.7722 5.5886 14.7108C5.55049 14.6526 5.52007 14.5818 5.49925 14.5029C5.47844 14.424 5.46769 14.3387 5.46769 14.2525C5.46769 14.1663 5.47844 14.081 5.49925 14.0021C5.52007 13.9232 5.55049 13.8524 5.5886 13.7942C5.61903 13.7291 5.65738 13.6756 5.70113 13.6371C5.74488 13.5986 5.79303 13.576 5.8424 13.5708C5.98014 13.5978 6.10764 13.7056 6.20212 13.875H8.64022V13.04H4.52343C4.44549 13.1839 4.36189 13.3325 4.27262 13.4858C4.19368 13.6242 4.11225 13.7667 4.02282 13.9283C4.01247 14.0943 3.96691 14.2487 3.89436 14.3636C3.82181 14.4785 3.72704 14.5464 3.62712 14.555C3.60808 14.5546 3.58906 14.5524 3.57017 14.5483C3.46119 14.5084 3.36609 14.3982 3.30563 14.2418C3.24517 14.0853 3.22424 13.8954 3.24742 13.7133C3.2769 13.3942 3.43327 13.2117 3.67708 13.2117C3.72239 13.2121 3.76763 13.2177 3.81248 13.2283C3.90091 13.0567 4.03431 12.805 4.1677 12.5817C4.21585 12.4907 4.27578 12.4192 4.34295 12.3725C4.41012 12.3259 4.48277 12.3054 4.5554 12.3125H8.64072V11.3967H3.73154C3.63093 11.5603 3.49974 11.6615 3.35983 11.6833C3.30483 11.6804 3.25108 11.6551 3.20322 11.6098C3.15535 11.5646 3.1148 11.5006 3.08505 11.4233C3.02227 11.2839 2.99255 11.1106 3.00159 10.9369C3.01062 10.7631 3.05777 10.601 3.13401 10.4817C3.1997 10.3819 3.28452 10.3243 3.37332 10.3192C3.45443 10.3345 3.53265 10.3785 3.60278 10.4481C3.6729 10.5178 3.73332 10.6116 3.78 10.7233H5.37876L5.3278 10.6425C5.04802 10.2025 4.75924 9.74667 4.40951 9.215C4.35679 9.21767 4.30433 9.20186 4.25549 9.16861C4.20666 9.13535 4.16256 9.08539 4.12602 9.02194C4.08949 8.95848 4.06134 8.88296 4.04339 8.80023C4.02544 8.71751 4.01809 8.62942 4.02182 8.54167C4.02182 8.11333 4.13173 7.9225 4.37704 7.9225C4.70778 7.9225 4.79671 8.09917 4.8132 8.78417C4.9371 8.9825 5.05901 9.175 5.18791 9.37833C5.47054 9.81997 5.74935 10.2683 6.02426 10.7233H8.64022V10.1042H7.49411C7.39223 10.2335 7.26968 10.3098 7.14189 10.3233C7.0849 10.3222 7.02882 10.2994 6.97791 10.2566C6.927 10.2139 6.88261 10.1523 6.84812 10.0767C6.78737 9.9389 6.76024 9.76782 6.7722 9.59798C6.78417 9.42813 6.83433 9.27219 6.91257 9.16167C6.97213 9.07068 7.05013 9.02067 7.1309 9.02167C7.28766 9.04295 7.43423 9.15984 7.54258 9.35H8.64072V8.65C8.52681 8.64945 8.41506 8.64722 8.30548 8.64333H8.30199C8.19275 8.63986 8.0835 8.63791 7.97424 8.6375C7.85034 8.6375 7.74092 8.64167 7.6395 8.64917C7.62041 8.6524 7.60123 8.65379 7.58205 8.65333C7.42164 8.65016 7.26833 8.5425 7.15488 8.35333L6.85511 7.93083L6.84912 7.9225L6.84512 7.91667C6.64214 7.63007 6.43863 7.34452 6.23459 7.06H4.44199C4.34068 7.20269 4.21459 7.2874 4.08227 7.30167C4.02666 7.30045 3.97196 7.27805 3.92234 7.23616C3.87272 7.19428 3.82951 7.13402 3.79599 7.06C3.76286 6.99475 3.73782 6.9192 3.72231 6.8377C3.7068 6.7562 3.70114 6.67039 3.70565 6.58522C3.71015 6.50004 3.72474 6.41721 3.74857 6.3415C3.77239 6.2658 3.80499 6.19873 3.84445 6.14417C3.906 6.03343 3.99089 5.96682 4.08127 5.95833C4.23994 5.9988 4.38489 6.13164 4.49045 6.33333H6.05673C6.16386 6.32789 6.27054 6.35843 6.37045 6.42313C6.47035 6.48784 6.56143 6.5854 6.63828 6.71C6.82464 7.0025 7.03547 7.285 7.23931 7.55917C7.33424 7.68667 7.43366 7.81833 7.52609 7.9475H8.62424V7.05917C8.55529 7.05917 8.48335 7.05583 8.4144 7.05333H8.4129C8.33964 7.04962 8.26636 7.04739 8.19307 7.04667C8.11313 7.04667 8.04185 7.05083 7.97924 7.05917C7.96015 7.06239 7.94097 7.06379 7.92178 7.06333C7.76446 7.05915 7.61304 6.96267 7.49411 6.79083C7.44403 6.72268 7.39323 6.656 7.34173 6.59083C7.29027 6.52417 7.23582 6.45583 7.18685 6.38667C6.78716 6.33333 6.63828 6.145 6.65427 5.71333C6.65852 5.54664 6.70124 5.38914 6.77349 5.27375C6.84574 5.15836 6.94194 5.09402 7.04197 5.09417C7.29027 5.09417 7.42917 5.34583 7.44565 5.82083C7.5101 5.90167 7.57455 5.99083 7.6395 6.07667L7.64 6.07833C7.70345 6.16417 7.7694 6.25333 7.83385 6.33333H8.62523V5.28333H8.35045C8.24559 5.44901 8.11162 5.55417 7.96825 5.58333C7.91593 5.57837 7.86498 5.55357 7.81927 5.51082C7.77356 5.46808 7.73429 5.40852 7.70445 5.33667C7.63636 5.20937 7.60012 5.04337 7.60319 4.87285C7.60625 4.70233 7.6484 4.54026 7.72094 4.42C7.75334 4.36398 7.79213 4.31934 7.83503 4.28871C7.87793 4.25809 7.92408 4.24209 7.97074 4.24167C8.04323 4.2495 8.11406 4.28123 8.17915 4.33501C8.24424 4.3888 8.30229 4.46357 8.34995 4.555H8.60825C8.63592 4.4663 8.64354 4.36396 8.62973 4.26667C8.62648 4.22857 8.62481 4.19015 8.62473 4.15167V3.72083C8.57623 3.72812 8.52755 3.73146 8.47885 3.73083C8.4197 3.73 8.36057 3.72722 8.30149 3.7225H8.29799C8.23742 3.71742 8.17678 3.71464 8.11613 3.71417C7.93914 3.70123 7.76336 3.76863 7.60753 3.90917C7.42754 4.08842 7.24154 4.25035 7.05046 4.39417H7.04896C6.97252 4.455 6.89308 4.5175 6.81614 4.58083C6.74979 4.62657 6.67784 4.64514 6.60631 4.635H5.52515C5.43274 4.79296 5.30927 4.89001 5.17742 4.90833C5.1185 4.90359 5.061 4.8766 5.00925 4.82939C4.95749 4.78219 4.91284 4.71601 4.87865 4.63583C4.8457 4.57453 4.82067 4.50257 4.80511 4.42444C4.78956 4.34631 4.78381 4.26367 4.78822 4.18167C4.79311 4.08711 4.80933 3.99516 4.83594 3.91128C4.86255 3.82739 4.89899 3.75327 4.9431 3.69333C5.00764 3.59342 5.09144 3.5352 5.17942 3.52917C5.25487 3.54415 5.32754 3.5858 5.39259 3.65132C5.45763 3.71685 5.51355 3.80475 5.55662 3.90917H6.60631C6.6448 3.90652 6.68263 3.89153 6.71772 3.865C6.73933 3.8502 6.76153 3.83795 6.78417 3.82833C6.84978 3.77333 6.91473 3.72056 6.97902 3.67C7.13892 3.54797 7.29485 3.41195 7.44615 3.2625C7.65028 3.05909 7.88437 2.95462 8.12213 2.96083C8.15443 2.96083 8.18741 2.9625 8.22105 2.96583C8.26382 2.97435 8.30688 2.97825 8.34995 2.9775C8.39225 2.9775 8.43555 2.97583 8.47985 2.9725C8.52581 2.96861 8.57394 2.96639 8.62324 2.96583C8.64327 2.80422 8.64949 2.63869 8.64172 2.47417C8.64039 2.41583 8.63972 2.35528 8.63972 2.2925H7.62152C7.51281 2.44489 7.37981 2.54104 7.23881 2.56917C7.18641 2.56419 7.13541 2.53903 7.08981 2.49565C7.04422 2.45228 7.00527 2.39187 6.97602 2.31917C6.91354 2.18632 6.88236 2.01995 6.88834 1.85141C6.89432 1.68286 6.93706 1.52379 7.00849 1.40417C7.07369 1.29785 7.16065 1.23679 7.2518 1.23333C7.39868 1.25481 7.53614 1.36296 7.6395 1.53833H8.64072C8.64139 1.46444 8.64372 1.38778 8.64772 1.30833C8.65221 1.21333 8.65671 1.11583 8.65671 1H9.58358C10.5383 5.74083 9.41062 4.27002 10.5622 6.96836C8.04327 8.61167 11.9156 8.61279 11.9991 10.5617C12.0591 12.3975 9.06888 11.1454 10.5622 14.1166C9.86876 14.997 10.5462 13.4858 10.901 16.3525C10.0474 17.1571 9.9544 20.9915 8.97396 21ZM9.15732 16.3525V20.0692C9.20189 20.0816 9.24702 20.0878 9.29222 20.0875C9.37441 20.0846 9.45639 20.0721 9.53752 20.05C9.59248 20.0375 9.64744 20.0225 9.70589 20.0158C10.1261 15.3833 10.6284 17.6766 10.901 16.3525H9.15732ZM10.3849 14.6558C10.1546 15.8066 10.9435 17.2052 10.5622 18.2383C10.1261 13.9825 9.91773 15.2607 10.5622 13.7133L10.3849 14.6558ZM11.0103 11.6667C10.9866 12.9769 9.80332 12.0167 10.5622 13.7133L10.5622 14.1166C10.9441 12.9176 7.71636 10.7233 9.92864 10.7233L11.0103 11.6667ZM9.15682 11.5317V15.3833H11.0953C11.307 14.129 11.4208 12.8345 11.434 11.5317H9.15682ZM9.17331 6.71V10.5883H11.45C11.4302 9.27579 11.311 7.97269 11.0953 6.71H9.17331ZM10.5622 6.96836C10.7658 8.23541 11.9666 9.25103 11.9991 10.5617L11.45 10.5883C8.64213 9.405 8.40105 13.0539 11.3882 9.1489L10.5622 6.96836ZM9.58358 3.865C9.96679 4.89998 9.68921 5.69895 9.92864 6.84796L10.5622 14.1166C9.90769 12.5741 10.6596 4.4567 9.58358 3.865ZM10.1343 6.71C10.1343 8.01167 9.17381 4.52833 9.1898 5.74083H10.918C10.9119 5.73015 10.9073 5.71737 10.9045 5.7034C10.9018 5.68942 10.9009 5.67461 10.902 5.66C10.6316 4.43593 10.3972 7.37784 9.92864 6.33333L9.76884 2.20583C9.75817 2.17892 9.74427 2.15599 9.72802 2.13849C9.71177 2.12099 10.2287 5.0875 10.1343 1.23333C9.96864 1.18317 10.3022 6.73202 10.1343 6.71Z" fill="url(#paint1_linear_17_49)"/>
</g>
<path d="M13.9308 7.69595C14.1448 8.24794 13.8453 8.62593 13.2658 8.99892C12.7982 9.29892 12.2027 9.62491 11.5716 10.1814C10.9526 10.7269 10.349 11.3844 9.81248 12.0314C9.35343 12.5868 8.91639 13.1601 8.50238 13.7498C8.29536 14.0453 8.00583 14.4863 8.00583 14.4863C7.90194 14.6468 7.75885 14.7782 7.59008 14.868C7.42131 14.9579 7.23242 15.0032 7.04125 14.9998C6.85019 14.9987 6.66259 14.9487 6.4963 14.8546C6.33 14.7606 6.19054 14.6255 6.09117 14.4623C5.59163 13.6238 5.2066 13.2923 5.02959 13.1739C4.55605 12.8549 4 12.8089 4 12.0669C4 11.4774 4.49754 10.9999 5.11109 10.9999C5.54463 11.0159 5.94716 11.1864 6.30419 11.4264C6.53221 11.5794 6.77373 11.7824 7.02475 12.0489C7.36116 11.5899 7.71101 11.1408 8.07384 10.7024C8.65239 10.0049 9.33544 9.25642 10.068 8.61043C10.7881 7.97544 11.6206 7.38095 12.5032 7.06696C13.0783 6.86196 13.7173 7.14346 13.9308 7.69595Z" fill="#28A745" stroke="#004D00" stroke-width="0.3" stroke-linecap="round" stroke-linejoin="round"/>
<defs>
<linearGradient id="paint0_linear_17_49" x1="9" y1="0" x2="9" y2="22" gradientUnits="userSpaceOnUse">
<stop stop-color="#007BFF"/>
<stop offset="1" stop-color="#0056B3"/>
</linearGradient>
<linearGradient id="paint1_linear_17_49" x1="7.5" y1="1" x2="7.5" y2="21" gradientUnits="userSpaceOnUse">
<stop stop-color="#0075FF"/>
<stop offset="1" stop-color="#0056B3"/>
</linearGradient>
<clipPath id="clip0_17_49">
<rect width="9" height="20" fill="white" transform="translate(0 1)"/>
</clipPath>
</defs>
</svg>
